<?xml version="1.0" encoding="utf-8" standalone="no"?>
<!DOCTYPE svg PUBLIC "-//W3C//DTD SVG 1.1//EN"
  "http://www.w3.org/Graphics/SVG/1.1/DTD/svg11.dtd">
<svg xmlns:xlink="http://www.w3.org/1999/xlink" width="738.680204pt" height="423.125156pt" viewBox="0 0 738.680204 423.125156" xmlns="http://www.w3.org/2000/svg" version="1.1">
 <metadata>
  <rdf:RDF xmlns:dc="http://purl.org/dc/elements/1.1/" xmlns:cc="http://creativecommons.org/ns#" xmlns:rdf="http://www.w3.org/1999/02/22-rdf-syntax-ns#">
   <cc:Work>
    <dc:type rdf:resource="http://purl.org/dc/dcmitype/StillImage"/>
    <dc:date>2024-09-10T13:24:09.724469</dc:date>
    <dc:format>image/svg+xml</dc:format>
    <dc:creator>
     <cc:Agent>
      <dc:title>Matplotlib v3.9.2, https://matplotlib.org/</dc:title>
     </cc:Agent>
    </dc:creator>
   </cc:Work>
  </rdf:RDF>
 </metadata>
 <defs>
  <style type="text/css">*{stroke-linejoin: round; stroke-linecap: butt}</style>
 </defs>
 <g id="figure_1">
  <g id="patch_1">
   <path d="M 0 423.125156 
L 738.680204 423.125156 
L 738.680204 0 
L 0 0 
z
" style="fill: #ffffff"/>
  </g>
  <g id="axes_1">
   <g id="patch_2">
    <path d="M 48.313438 189.615319 
L 227.438383 189.615319 
L 227.438383 41.76 
L 48.313438 41.76 
z
" style="fill: #eaeaf2"/>
   </g>
   <g id="matplotlib.axis_1">
    <g id="xtick_1">
     <g id="text_1">
      <!-- 0.00 -->
      <g style="fill: #262626" transform="translate(45.588961 200.988913) scale(0.11 -0.11)">
       <defs>
        <path id="ArialMT-30" d="M 266 2259 
Q 266 3072 433 3567 
Q 600 4063 929 4331 
Q 1259 4600 1759 4600 
Q 2128 4600 2406 4451 
Q 2684 4303 2865 4023 
Q 3047 3744 3150 3342 
Q 3253 2941 3253 2259 
Q 3253 1453 3087 958 
Q 2922 463 2592 192 
Q 2263 -78 1759 -78 
Q 1097 -78 719 397 
Q 266 969 266 2259 
z
M 844 2259 
Q 844 1131 1108 757 
Q 1372 384 1759 384 
Q 2147 384 2411 759 
Q 2675 1134 2675 2259 
Q 2675 3391 2411 3762 
Q 2147 4134 1753 4134 
Q 1366 4134 1134 3806 
Q 844 3388 844 2259 
z
" transform="scale(0.015625)"/>
        <path id="ArialMT-2e" d="M 581 0 
L 581 641 
L 1222 641 
L 1222 0 
L 581 0 
z
" transform="scale(0.015625)"/>
       </defs>
       <use xlink:href="#ArialMT-30"/>
       <use xlink:href="#ArialMT-2e" x="55.615234"/>
       <use xlink:href="#ArialMT-30" x="83.398438"/>
       <use xlink:href="#ArialMT-30" x="139.013672"/>
      </g>
     </g>
    </g>
    <g id="xtick_2">
     <g id="text_2">
      <!-- 0.25 -->
      <g style="fill: #262626" transform="translate(86.339927 200.988913) scale(0.11 -0.11)">
       <defs>
        <path id="ArialMT-32" d="M 3222 541 
L 3222 0 
L 194 0 
Q 188 203 259 391 
Q 375 700 629 1000 
Q 884 1300 1366 1694 
Q 2113 2306 2375 2664 
Q 2638 3022 2638 3341 
Q 2638 3675 2398 3904 
Q 2159 4134 1775 4134 
Q 1369 4134 1125 3890 
Q 881 3647 878 3216 
L 300 3275 
Q 359 3922 746 4261 
Q 1134 4600 1788 4600 
Q 2447 4600 2831 4234 
Q 3216 3869 3216 3328 
Q 3216 3053 3103 2787 
Q 2991 2522 2730 2228 
Q 2469 1934 1863 1422 
Q 1356 997 1212 845 
Q 1069 694 975 541 
L 3222 541 
z
" transform="scale(0.015625)"/>
        <path id="ArialMT-35" d="M 266 1200 
L 856 1250 
Q 922 819 1161 601 
Q 1400 384 1738 384 
Q 2144 384 2425 690 
Q 2706 997 2706 1503 
Q 2706 1984 2436 2262 
Q 2166 2541 1728 2541 
Q 1456 2541 1237 2417 
Q 1019 2294 894 2097 
L 366 2166 
L 809 4519 
L 3088 4519 
L 3088 3981 
L 1259 3981 
L 1013 2750 
Q 1425 3038 1878 3038 
Q 2478 3038 2890 2622 
Q 3303 2206 3303 1553 
Q 3303 931 2941 478 
Q 2500 -78 1738 -78 
Q 1113 -78 717 272 
Q 322 622 266 1200 
z
" transform="scale(0.015625)"/>
       </defs>
       <use xlink:href="#ArialMT-30"/>
       <use xlink:href="#ArialMT-2e" x="55.615234"/>
       <use xlink:href="#ArialMT-32" x="83.398438"/>
       <use xlink:href="#ArialMT-35" x="139.013672"/>
      </g>
     </g>
    </g>
    <g id="xtick_3">
     <g id="text_3">
      <!-- 0.50 -->
      <g style="fill: #262626" transform="translate(127.090893 200.988913) scale(0.11 -0.11)">
       <use xlink:href="#ArialMT-30"/>
       <use xlink:href="#ArialMT-2e" x="55.615234"/>
       <use xlink:href="#ArialMT-35" x="83.398438"/>
       <use xlink:href="#ArialMT-30" x="139.013672"/>
      </g>
     </g>
    </g>
    <g id="xtick_4">
     <g id="text_4">
      <!-- 0.75 -->
      <g style="fill: #262626" transform="translate(167.841859 200.988913) scale(0.11 -0.11)">
       <defs>
        <path id="ArialMT-37" d="M 303 3981 
L 303 4522 
L 3269 4522 
L 3269 4084 
Q 2831 3619 2401 2847 
Q 1972 2075 1738 1259 
Q 1569 684 1522 0 
L 944 0 
Q 953 541 1156 1306 
Q 1359 2072 1739 2783 
Q 2119 3494 2547 3981 
L 303 3981 
z
" transform="scale(0.015625)"/>
       </defs>
       <use xlink:href="#ArialMT-30"/>
       <use xlink:href="#ArialMT-2e" x="55.615234"/>
       <use xlink:href="#ArialMT-37" x="83.398438"/>
       <use xlink:href="#ArialMT-35" x="139.013672"/>
      </g>
     </g>
    </g>
    <g id="xtick_5">
     <g id="text_5">
      <!-- 1.00 -->
      <g style="fill: #262626" transform="translate(208.592825 200.988913) scale(0.11 -0.11)">
       <defs>
        <path id="ArialMT-31" d="M 2384 0 
L 1822 0 
L 1822 3584 
Q 1619 3391 1289 3197 
Q 959 3003 697 2906 
L 697 3450 
Q 1169 3672 1522 3987 
Q 1875 4303 2022 4600 
L 2384 4600 
L 2384 0 
z
" transform="scale(0.015625)"/>
       </defs>
       <use xlink:href="#ArialMT-31"/>
       <use xlink:href="#ArialMT-2e" x="55.615234"/>
       <use xlink:href="#ArialMT-30" x="83.398438"/>
       <use xlink:href="#ArialMT-30" x="139.013672"/>
      </g>
     </g>
    </g>
    <g id="text_6">
     <!-- Epsilon -->
     <g style="fill: #262626" transform="translate(121.477473 214.332975) scale(0.1 -0.1)">
      <defs>
       <path id="ArialMT-45" d="M 506 0 
L 506 4581 
L 3819 4581 
L 3819 4041 
L 1113 4041 
L 1113 2638 
L 3647 2638 
L 3647 2100 
L 1113 2100 
L 1113 541 
L 3925 541 
L 3925 0 
L 506 0 
z
" transform="scale(0.015625)"/>
       <path id="ArialMT-70" d="M 422 -1272 
L 422 3319 
L 934 3319 
L 934 2888 
Q 1116 3141 1344 3267 
Q 1572 3394 1897 3394 
Q 2322 3394 2647 3175 
Q 2972 2956 3137 2557 
Q 3303 2159 3303 1684 
Q 3303 1175 3120 767 
Q 2938 359 2589 142 
Q 2241 -75 1856 -75 
Q 1575 -75 1351 44 
Q 1128 163 984 344 
L 984 -1272 
L 422 -1272 
z
M 931 1641 
Q 931 1000 1190 694 
Q 1450 388 1819 388 
Q 2194 388 2461 705 
Q 2728 1022 2728 1688 
Q 2728 2322 2467 2637 
Q 2206 2953 1844 2953 
Q 1484 2953 1207 2617 
Q 931 2281 931 1641 
z
" transform="scale(0.015625)"/>
       <path id="ArialMT-73" d="M 197 991 
L 753 1078 
Q 800 744 1014 566 
Q 1228 388 1613 388 
Q 2000 388 2187 545 
Q 2375 703 2375 916 
Q 2375 1106 2209 1216 
Q 2094 1291 1634 1406 
Q 1016 1563 777 1677 
Q 538 1791 414 1992 
Q 291 2194 291 2438 
Q 291 2659 392 2848 
Q 494 3038 669 3163 
Q 800 3259 1026 3326 
Q 1253 3394 1513 3394 
Q 1903 3394 2198 3281 
Q 2494 3169 2634 2976 
Q 2775 2784 2828 2463 
L 2278 2388 
Q 2241 2644 2061 2787 
Q 1881 2931 1553 2931 
Q 1166 2931 1000 2803 
Q 834 2675 834 2503 
Q 834 2394 903 2306 
Q 972 2216 1119 2156 
Q 1203 2125 1616 2013 
Q 2213 1853 2448 1751 
Q 2684 1650 2818 1456 
Q 2953 1263 2953 975 
Q 2953 694 2789 445 
Q 2625 197 2315 61 
Q 2006 -75 1616 -75 
Q 969 -75 630 194 
Q 291 463 197 991 
z
" transform="scale(0.015625)"/>
       <path id="ArialMT-69" d="M 425 3934 
L 425 4581 
L 988 4581 
L 988 3934 
L 425 3934 
z
M 425 0 
L 425 3319 
L 988 3319 
L 988 0 
L 425 0 
z
" transform="scale(0.015625)"/>
       <path id="ArialMT-6c" d="M 409 0 
L 409 4581 
L 972 4581 
L 972 0 
L 409 0 
z
" transform="scale(0.015625)"/>
       <path id="ArialMT-6f" d="M 213 1659 
Q 213 2581 725 3025 
Q 1153 3394 1769 3394 
Q 2453 3394 2887 2945 
Q 3322 2497 3322 1706 
Q 3322 1066 3130 698 
Q 2938 331 2570 128 
Q 2203 -75 1769 -75 
Q 1072 -75 642 372 
Q 213 819 213 1659 
z
M 791 1659 
Q 791 1022 1069 705 
Q 1347 388 1769 388 
Q 2188 388 2466 706 
Q 2744 1025 2744 1678 
Q 2744 2294 2464 2611 
Q 2184 2928 1769 2928 
Q 1347 2928 1069 2612 
Q 791 2297 791 1659 
z
" transform="scale(0.015625)"/>
       <path id="ArialMT-6e" d="M 422 0 
L 422 3319 
L 928 3319 
L 928 2847 
Q 1294 3394 1984 3394 
Q 2284 3394 2536 3286 
Q 2788 3178 2913 3003 
Q 3038 2828 3088 2588 
Q 3119 2431 3119 2041 
L 3119 0 
L 2556 0 
L 2556 2019 
Q 2556 2363 2490 2533 
Q 2425 2703 2258 2804 
Q 2091 2906 1866 2906 
Q 1506 2906 1245 2678 
Q 984 2450 984 1813 
L 984 0 
L 422 0 
z
" transform="scale(0.015625)"/>
      </defs>
      <use xlink:href="#ArialMT-45"/>
      <use xlink:href="#ArialMT-70" x="66.699219"/>
      <use xlink:href="#ArialMT-73" x="122.314453"/>
      <use xlink:href="#ArialMT-69" x="172.314453"/>
      <use xlink:href="#ArialMT-6c" x="194.53125"/>
      <use xlink:href="#ArialMT-6f" x="216.748047"/>
      <use xlink:href="#ArialMT-6e" x="272.363281"/>
     </g>
    </g>
   </g>
   <g id="matplotlib.axis_2">
    <g id="ytick_1">
     <g id="text_7">
      <!-- 0 -->
      <g style="fill: #262626" transform="translate(38.696406 186.962133) scale(0.11 -0.11)">
       <use xlink:href="#ArialMT-30"/>
      </g>
     </g>
    </g>
    <g id="ytick_2">
     <g id="text_8">
      <!-- 500 -->
      <g style="fill: #262626" transform="translate(26.462344 153.307361) scale(0.11 -0.11)">
       <use xlink:href="#ArialMT-35"/>
       <use xlink:href="#ArialMT-30" x="55.615234"/>
       <use xlink:href="#ArialMT-30" x="111.230469"/>
      </g>
     </g>
    </g>
    <g id="ytick_3">
     <g id="text_9">
      <!-- 1000 -->
      <g style="fill: #262626" transform="translate(20.345313 119.652588) scale(0.11 -0.11)">
       <use xlink:href="#ArialMT-31"/>
       <use xlink:href="#ArialMT-30" x="55.615234"/>
       <use xlink:href="#ArialMT-30" x="111.230469"/>
       <use xlink:href="#ArialMT-30" x="166.845703"/>
      </g>
     </g>
    </g>
    <g id="ytick_4">
     <g id="text_10">
      <!-- 1500 -->
      <g style="fill: #262626" transform="translate(20.345313 85.997815) scale(0.11 -0.11)">
       <use xlink:href="#ArialMT-31"/>
       <use xlink:href="#ArialMT-35" x="55.615234"/>
       <use xlink:href="#ArialMT-30" x="111.230469"/>
       <use xlink:href="#ArialMT-30" x="166.845703"/>
      </g>
     </g>
    </g>
    <g id="ytick_5">
     <g id="text_11">
      <!-- 2000 -->
      <g style="fill: #262626" transform="translate(20.345313 52.343043) scale(0.11 -0.11)">
       <use xlink:href="#ArialMT-32"/>
       <use xlink:href="#ArialMT-30" x="55.615234"/>
       <use xlink:href="#ArialMT-30" x="111.230469"/>
       <use xlink:href="#ArialMT-30" x="166.845703"/>
      </g>
     </g>
    </g>
    <g id="text_12">
     <!-- RMSE -->
     <g style="fill: #262626" transform="translate(14.357813 130.133753) rotate(-90) scale(0.1 -0.1)">
      <defs>
       <path id="ArialMT-52" d="M 503 0 
L 503 4581 
L 2534 4581 
Q 3147 4581 3465 4457 
Q 3784 4334 3975 4021 
Q 4166 3709 4166 3331 
Q 4166 2844 3850 2509 
Q 3534 2175 2875 2084 
Q 3116 1969 3241 1856 
Q 3506 1613 3744 1247 
L 4541 0 
L 3778 0 
L 3172 953 
Q 2906 1366 2734 1584 
Q 2563 1803 2427 1890 
Q 2291 1978 2150 2013 
Q 2047 2034 1813 2034 
L 1109 2034 
L 1109 0 
L 503 0 
z
M 1109 2559 
L 2413 2559 
Q 2828 2559 3062 2645 
Q 3297 2731 3419 2920 
Q 3541 3109 3541 3331 
Q 3541 3656 3305 3865 
Q 3069 4075 2559 4075 
L 1109 4075 
L 1109 2559 
z
" transform="scale(0.015625)"/>
       <path id="ArialMT-4d" d="M 475 0 
L 475 4581 
L 1388 4581 
L 2472 1338 
Q 2622 884 2691 659 
Q 2769 909 2934 1394 
L 4031 4581 
L 4847 4581 
L 4847 0 
L 4263 0 
L 4263 3834 
L 2931 0 
L 2384 0 
L 1059 3900 
L 1059 0 
L 475 0 
z
" transform="scale(0.015625)"/>
       <path id="ArialMT-53" d="M 288 1472 
L 859 1522 
Q 900 1178 1048 958 
Q 1197 738 1509 602 
Q 1822 466 2213 466 
Q 2559 466 2825 569 
Q 3091 672 3220 851 
Q 3350 1031 3350 1244 
Q 3350 1459 3225 1620 
Q 3100 1781 2813 1891 
Q 2628 1963 1997 2114 
Q 1366 2266 1113 2400 
Q 784 2572 623 2826 
Q 463 3081 463 3397 
Q 463 3744 659 4045 
Q 856 4347 1234 4503 
Q 1613 4659 2075 4659 
Q 2584 4659 2973 4495 
Q 3363 4331 3572 4012 
Q 3781 3694 3797 3291 
L 3216 3247 
Q 3169 3681 2898 3903 
Q 2628 4125 2100 4125 
Q 1550 4125 1298 3923 
Q 1047 3722 1047 3438 
Q 1047 3191 1225 3031 
Q 1400 2872 2139 2705 
Q 2878 2538 3153 2413 
Q 3553 2228 3743 1945 
Q 3934 1663 3934 1294 
Q 3934 928 3725 604 
Q 3516 281 3123 101 
Q 2731 -78 2241 -78 
Q 1619 -78 1198 103 
Q 778 284 539 648 
Q 300 1013 288 1472 
z
" transform="scale(0.015625)"/>
      </defs>
      <use xlink:href="#ArialMT-52"/>
      <use xlink:href="#ArialMT-4d" x="72.216797"/>
      <use xlink:href="#ArialMT-53" x="155.517578"/>
      <use xlink:href="#ArialMT-45" x="222.216797"/>
     </g>
    </g>
   </g>
   <g id="PolyCollection_1">
    <defs>
     <path id="mc8f8f55ae6" d="M 56.45548 -368.917836 
L 56.45548 -363.114025 
L 57.922515 -252.729251 
L 72.592863 -241.374806 
L 219.29634 -240.234239 
L 219.29634 -240.239702 
L 219.29634 -240.239702 
L 72.592863 -241.43109 
L 57.922515 -253.329059 
L 56.45548 -368.917836 
z
" style="stroke: #004488; stroke-opacity: 0.2"/>
    </defs>
    <g clip-path="url(#p3208cdb251)">
     <use xlink:href="#mc8f8f55ae6" x="0" y="423.125156" style="fill: #004488; fill-opacity: 0.2; stroke: #004488; stroke-opacity: 0.2"/>
    </g>
   </g>
   <g id="line2d_1">
    <path d="M 56.45548 57.179961 
L 57.922515 170.090172 
L 72.592863 181.722365 
L 219.29634 182.888311 
" clip-path="url(#p3208cdb251)" style="fill: none; stroke: #004488; stroke-width: 1.5; stroke-linecap: round"/>
    <defs>
     <path id="m1828fd4d06" d="M 0 2.5 
C 0.663008 2.5 1.29895 2.236584 1.767767 1.767767 
C 2.236584 1.29895 2.5 0.663008 2.5 0 
C 2.5 -0.663008 2.236584 -1.29895 1.767767 -1.767767 
C 1.29895 -2.236584 0.663008 -2.5 0 -2.5 
C -0.663008 -2.5 -1.29895 -2.236584 -1.767767 -1.767767 
C -2.236584 -1.29895 -2.5 -0.663008 -2.5 0 
C -2.5 0.663008 -2.236584 1.29895 -1.767767 1.767767 
C -1.29895 2.236584 -0.663008 2.5 0 2.5 
z
" style="stroke: #004488; stroke-width: 0.75"/>
    </defs>
    <g clip-path="url(#p3208cdb251)">
     <use xlink:href="#m1828fd4d06" x="56.45548" y="57.179961" style="fill: #004488; stroke: #004488; stroke-width: 0.75"/>
     <use xlink:href="#m1828fd4d06" x="57.922515" y="170.090172" style="fill: #004488; stroke: #004488; stroke-width: 0.75"/>
     <use xlink:href="#m1828fd4d06" x="72.592863" y="181.722365" style="fill: #004488; stroke: #004488; stroke-width: 0.75"/>
     <use xlink:href="#m1828fd4d06" x="219.29634" y="182.888311" style="fill: #004488; stroke: #004488; stroke-width: 0.75"/>
    </g>
   </g>
   <g id="line2d_2"/>
   <g id="line2d_3"/>
   <g id="line2d_4"/>
   <g id="line2d_5"/>
   <g id="line2d_6"/>
   <g id="patch_3">
    <path d="M 48.313438 189.615319 
L 48.313438 41.76 
" style="fill: none"/>
   </g>
   <g id="patch_4">
    <path d="M 48.313438 189.615319 
L 227.438383 189.615319 
" style="fill: none"/>
   </g>
   <g id="text_13">
    <!-- Teign Valley (Low Diversity) -->
    <g style="fill: #262626" transform="translate(64.633723 35.76) scale(0.12 -0.12)">
     <defs>
      <path id="ArialMT-54" d="M 1659 0 
L 1659 4041 
L 150 4041 
L 150 4581 
L 3781 4581 
L 3781 4041 
L 2266 4041 
L 2266 0 
L 1659 0 
z
" transform="scale(0.015625)"/>
      <path id="ArialMT-65" d="M 2694 1069 
L 3275 997 
Q 3138 488 2766 206 
Q 2394 -75 1816 -75 
Q 1088 -75 661 373 
Q 234 822 234 1631 
Q 234 2469 665 2931 
Q 1097 3394 1784 3394 
Q 2450 3394 2872 2941 
Q 3294 2488 3294 1666 
Q 3294 1616 3291 1516 
L 816 1516 
Q 847 969 1125 678 
Q 1403 388 1819 388 
Q 2128 388 2347 550 
Q 2566 713 2694 1069 
z
M 847 1978 
L 2700 1978 
Q 2663 2397 2488 2606 
Q 2219 2931 1791 2931 
Q 1403 2931 1139 2672 
Q 875 2413 847 1978 
z
" transform="scale(0.015625)"/>
      <path id="ArialMT-67" d="M 319 -275 
L 866 -356 
Q 900 -609 1056 -725 
Q 1266 -881 1628 -881 
Q 2019 -881 2231 -725 
Q 2444 -569 2519 -288 
Q 2563 -116 2559 434 
Q 2191 0 1641 0 
Q 956 0 581 494 
Q 206 988 206 1678 
Q 206 2153 378 2554 
Q 550 2956 876 3175 
Q 1203 3394 1644 3394 
Q 2231 3394 2613 2919 
L 2613 3319 
L 3131 3319 
L 3131 450 
Q 3131 -325 2973 -648 
Q 2816 -972 2473 -1159 
Q 2131 -1347 1631 -1347 
Q 1038 -1347 672 -1080 
Q 306 -813 319 -275 
z
M 784 1719 
Q 784 1066 1043 766 
Q 1303 466 1694 466 
Q 2081 466 2343 764 
Q 2606 1063 2606 1700 
Q 2606 2309 2336 2618 
Q 2066 2928 1684 2928 
Q 1309 2928 1046 2623 
Q 784 2319 784 1719 
z
" transform="scale(0.015625)"/>
      <path id="ArialMT-20" transform="scale(0.015625)"/>
      <path id="ArialMT-56" d="M 1803 0 
L 28 4581 
L 684 4581 
L 1875 1253 
Q 2019 853 2116 503 
Q 2222 878 2363 1253 
L 3600 4581 
L 4219 4581 
L 2425 0 
L 1803 0 
z
" transform="scale(0.015625)"/>
      <path id="ArialMT-61" d="M 2588 409 
Q 2275 144 1986 34 
Q 1697 -75 1366 -75 
Q 819 -75 525 192 
Q 231 459 231 875 
Q 231 1119 342 1320 
Q 453 1522 633 1644 
Q 813 1766 1038 1828 
Q 1203 1872 1538 1913 
Q 2219 1994 2541 2106 
Q 2544 2222 2544 2253 
Q 2544 2597 2384 2738 
Q 2169 2928 1744 2928 
Q 1347 2928 1158 2789 
Q 969 2650 878 2297 
L 328 2372 
Q 403 2725 575 2942 
Q 747 3159 1072 3276 
Q 1397 3394 1825 3394 
Q 2250 3394 2515 3294 
Q 2781 3194 2906 3042 
Q 3031 2891 3081 2659 
Q 3109 2516 3109 2141 
L 3109 1391 
Q 3109 606 3145 398 
Q 3181 191 3288 0 
L 2700 0 
Q 2613 175 2588 409 
z
M 2541 1666 
Q 2234 1541 1622 1453 
Q 1275 1403 1131 1340 
Q 988 1278 909 1158 
Q 831 1038 831 891 
Q 831 666 1001 516 
Q 1172 366 1500 366 
Q 1825 366 2078 508 
Q 2331 650 2450 897 
Q 2541 1088 2541 1459 
L 2541 1666 
z
" transform="scale(0.015625)"/>
      <path id="ArialMT-79" d="M 397 -1278 
L 334 -750 
Q 519 -800 656 -800 
Q 844 -800 956 -737 
Q 1069 -675 1141 -563 
Q 1194 -478 1313 -144 
Q 1328 -97 1363 -6 
L 103 3319 
L 709 3319 
L 1400 1397 
Q 1534 1031 1641 628 
Q 1738 1016 1872 1384 
L 2581 3319 
L 3144 3319 
L 1881 -56 
Q 1678 -603 1566 -809 
Q 1416 -1088 1222 -1217 
Q 1028 -1347 759 -1347 
Q 597 -1347 397 -1278 
z
" transform="scale(0.015625)"/>
      <path id="ArialMT-28" d="M 1497 -1347 
Q 1031 -759 709 28 
Q 388 816 388 1659 
Q 388 2403 628 3084 
Q 909 3875 1497 4659 
L 1900 4659 
Q 1522 4009 1400 3731 
Q 1209 3300 1100 2831 
Q 966 2247 966 1656 
Q 966 153 1900 -1347 
L 1497 -1347 
z
" transform="scale(0.015625)"/>
      <path id="ArialMT-4c" d="M 469 0 
L 469 4581 
L 1075 4581 
L 1075 541 
L 3331 541 
L 3331 0 
L 469 0 
z
" transform="scale(0.015625)"/>
      <path id="ArialMT-77" d="M 1034 0 
L 19 3319 
L 600 3319 
L 1128 1403 
L 1325 691 
Q 1338 744 1497 1375 
L 2025 3319 
L 2603 3319 
L 3100 1394 
L 3266 759 
L 3456 1400 
L 4025 3319 
L 4572 3319 
L 3534 0 
L 2950 0 
L 2422 1988 
L 2294 2553 
L 1622 0 
L 1034 0 
z
" transform="scale(0.015625)"/>
      <path id="ArialMT-44" d="M 494 0 
L 494 4581 
L 2072 4581 
Q 2606 4581 2888 4516 
Q 3281 4425 3559 4188 
Q 3922 3881 4101 3404 
Q 4281 2928 4281 2316 
Q 4281 1794 4159 1391 
Q 4038 988 3847 723 
Q 3656 459 3429 307 
Q 3203 156 2883 78 
Q 2563 0 2147 0 
L 494 0 
z
M 1100 541 
L 2078 541 
Q 2531 541 2789 625 
Q 3047 709 3200 863 
Q 3416 1078 3536 1442 
Q 3656 1806 3656 2325 
Q 3656 3044 3420 3430 
Q 3184 3816 2847 3947 
Q 2603 4041 2063 4041 
L 1100 4041 
L 1100 541 
z
" transform="scale(0.015625)"/>
      <path id="ArialMT-76" d="M 1344 0 
L 81 3319 
L 675 3319 
L 1388 1331 
Q 1503 1009 1600 663 
Q 1675 925 1809 1294 
L 2547 3319 
L 3125 3319 
L 1869 0 
L 1344 0 
z
" transform="scale(0.015625)"/>
      <path id="ArialMT-72" d="M 416 0 
L 416 3319 
L 922 3319 
L 922 2816 
Q 1116 3169 1280 3281 
Q 1444 3394 1641 3394 
Q 1925 3394 2219 3213 
L 2025 2691 
Q 1819 2813 1613 2813 
Q 1428 2813 1281 2702 
Q 1134 2591 1072 2394 
Q 978 2094 978 1738 
L 978 0 
L 416 0 
z
" transform="scale(0.015625)"/>
      <path id="ArialMT-74" d="M 1650 503 
L 1731 6 
Q 1494 -44 1306 -44 
Q 1000 -44 831 53 
Q 663 150 594 308 
Q 525 466 525 972 
L 525 2881 
L 113 2881 
L 113 3319 
L 525 3319 
L 525 4141 
L 1084 4478 
L 1084 3319 
L 1650 3319 
L 1650 2881 
L 1084 2881 
L 1084 941 
Q 1084 700 1114 631 
Q 1144 563 1211 522 
Q 1278 481 1403 481 
Q 1497 481 1650 503 
z
" transform="scale(0.015625)"/>
      <path id="ArialMT-29" d="M 791 -1347 
L 388 -1347 
Q 1322 153 1322 1656 
Q 1322 2244 1188 2822 
Q 1081 3291 891 3722 
Q 769 4003 388 4659 
L 791 4659 
Q 1378 3875 1659 3084 
Q 1900 2403 1900 1659 
Q 1900 816 1576 28 
Q 1253 -759 791 -1347 
z
" transform="scale(0.015625)"/>
     </defs>
     <use xlink:href="#ArialMT-54"/>
     <use xlink:href="#ArialMT-65" x="49.958984"/>
     <use xlink:href="#ArialMT-69" x="105.574219"/>
     <use xlink:href="#ArialMT-67" x="127.791016"/>
     <use xlink:href="#ArialMT-6e" x="183.40625"/>
     <use xlink:href="#ArialMT-20" x="239.021484"/>
     <use xlink:href="#ArialMT-56" x="266.804688"/>
     <use xlink:href="#ArialMT-61" x="326.128906"/>
     <use xlink:href="#ArialMT-6c" x="381.744141"/>
     <use xlink:href="#ArialMT-6c" x="403.960938"/>
     <use xlink:href="#ArialMT-65" x="426.177734"/>
     <use xlink:href="#ArialMT-79" x="481.792969"/>
     <use xlink:href="#ArialMT-20" x="531.792969"/>
     <use xlink:href="#ArialMT-28" x="559.576172"/>
     <use xlink:href="#ArialMT-4c" x="592.876953"/>
     <use xlink:href="#ArialMT-6f" x="648.492188"/>
     <use xlink:href="#ArialMT-77" x="704.107422"/>
     <use xlink:href="#ArialMT-20" x="776.324219"/>
     <use xlink:href="#ArialMT-44" x="804.107422"/>
     <use xlink:href="#ArialMT-69" x="876.324219"/>
     <use xlink:href="#ArialMT-76" x="898.541016"/>
     <use xlink:href="#ArialMT-65" x="948.541016"/>
     <use xlink:href="#ArialMT-72" x="1004.15625"/>
     <use xlink:href="#ArialMT-73" x="1037.457031"/>
     <use xlink:href="#ArialMT-69" x="1087.457031"/>
     <use xlink:href="#ArialMT-74" x="1109.673828"/>
     <use xlink:href="#ArialMT-79" x="1137.457031"/>
     <use xlink:href="#ArialMT-29" x="1187.457031"/>
    </g>
   </g>
  </g>
  <g id="axes_2">
   <g id="patch_5">
    <path d="M 246.576948 189.615319 
L 425.701894 189.615319 
L 425.701894 41.76 
L 246.576948 41.76 
z
" style="fill: #eaeaf2"/>
   </g>
   <g id="matplotlib.axis_3">
    <g id="xtick_6">
     <g id="text_14">
      <!-- 0.00 -->
      <g style="fill: #262626" transform="translate(243.852471 200.988913) scale(0.11 -0.11)">
       <use xlink:href="#ArialMT-30"/>
       <use xlink:href="#ArialMT-2e" x="55.615234"/>
       <use xlink:href="#ArialMT-30" x="83.398438"/>
       <use xlink:href="#ArialMT-30" x="139.013672"/>
      </g>
     </g>
    </g>
    <g id="xtick_7">
     <g id="text_15">
      <!-- 0.25 -->
      <g style="fill: #262626" transform="translate(284.603437 200.988913) scale(0.11 -0.11)">
       <use xlink:href="#ArialMT-30"/>
       <use xlink:href="#ArialMT-2e" x="55.615234"/>
       <use xlink:href="#ArialMT-32" x="83.398438"/>
       <use xlink:href="#ArialMT-35" x="139.013672"/>
      </g>
     </g>
    </g>
    <g id="xtick_8">
     <g id="text_16">
      <!-- 0.50 -->
      <g style="fill: #262626" transform="translate(325.354403 200.988913) scale(0.11 -0.11)">
       <use xlink:href="#ArialMT-30"/>
       <use xlink:href="#ArialMT-2e" x="55.615234"/>
       <use xlink:href="#ArialMT-35" x="83.398438"/>
       <use xlink:href="#ArialMT-30" x="139.013672"/>
      </g>
     </g>
    </g>
    <g id="xtick_9">
     <g id="text_17">
      <!-- 0.75 -->
      <g style="fill: #262626" transform="translate(366.105369 200.988913) scale(0.11 -0.11)">
       <use xlink:href="#ArialMT-30"/>
       <use xlink:href="#ArialMT-2e" x="55.615234"/>
       <use xlink:href="#ArialMT-37" x="83.398438"/>
       <use xlink:href="#ArialMT-35" x="139.013672"/>
      </g>
     </g>
    </g>
    <g id="xtick_10">
     <g id="text_18">
      <!-- 1.00 -->
      <g style="fill: #262626" transform="translate(406.856335 200.988913) scale(0.11 -0.11)">
       <use xlink:href="#ArialMT-31"/>
       <use xlink:href="#ArialMT-2e" x="55.615234"/>
       <use xlink:href="#ArialMT-30" x="83.398438"/>
       <use xlink:href="#ArialMT-30" x="139.013672"/>
      </g>
     </g>
    </g>
    <g id="text_19">
     <!-- Epsilon -->
     <g style="fill: #262626" transform="translate(319.740983 214.332975) scale(0.1 -0.1)">
      <use xlink:href="#ArialMT-45"/>
      <use xlink:href="#ArialMT-70" x="66.699219"/>
      <use xlink:href="#ArialMT-73" x="122.314453"/>
      <use xlink:href="#ArialMT-69" x="172.314453"/>
      <use xlink:href="#ArialMT-6c" x="194.53125"/>
      <use xlink:href="#ArialMT-6f" x="216.748047"/>
      <use xlink:href="#ArialMT-6e" x="272.363281"/>
     </g>
    </g>
   </g>
   <g id="matplotlib.axis_4">
    <g id="ytick_6"/>
    <g id="ytick_7"/>
    <g id="ytick_8"/>
    <g id="ytick_9"/>
    <g id="ytick_10"/>
   </g>
   <g id="PolyCollection_2">
    <defs>
     <path id="m1a5de5eb63" d="M 254.718991 -369.076889 
L 254.718991 -363.052605 
L 256.186026 -252.751322 
L 270.856373 -241.376201 
L 417.559851 -240.240045 
L 417.559851 -240.245566 
L 417.559851 -240.245566 
L 270.856373 -241.433864 
L 256.186026 -253.312757 
L 254.718991 -369.076889 
z
" style="stroke: #ddaa33; stroke-opacity: 0.2"/>
    </defs>
    <g clip-path="url(#p4e6c38da5c)">
     <use xlink:href="#m1a5de5eb63" x="0" y="423.125156" style="fill: #ddaa33; fill-opacity: 0.2; stroke: #ddaa33; stroke-opacity: 0.2"/>
    </g>
   </g>
   <g id="line2d_7">
    <path d="M 254.718991 57.206205 
L 256.186026 170.091651 
L 270.856373 181.720804 
L 417.559851 182.882361 
" clip-path="url(#p4e6c38da5c)" style="fill: none; stroke: #ddaa33; stroke-width: 1.5; stroke-linecap: round"/>
    <defs>
     <path id="m5a84e4a42e" d="M 0 2.5 
C 0.663008 2.5 1.29895 2.236584 1.767767 1.767767 
C 2.236584 1.29895 2.5 0.663008 2.5 0 
C 2.5 -0.663008 2.236584 -1.29895 1.767767 -1.767767 
C 1.29895 -2.236584 0.663008 -2.5 0 -2.5 
C -0.663008 -2.5 -1.29895 -2.236584 -1.767767 -1.767767 
C -2.236584 -1.29895 -2.5 -0.663008 -2.5 0 
C -2.5 0.663008 -2.236584 1.29895 -1.767767 1.767767 
C -1.29895 2.236584 -0.663008 2.5 0 2.5 
z
" style="stroke: #ddaa33; stroke-width: 0.75"/>
    </defs>
    <g clip-path="url(#p4e6c38da5c)">
     <use xlink:href="#m5a84e4a42e" x="254.718991" y="57.206205" style="fill: #ddaa33; stroke: #ddaa33; stroke-width: 0.75"/>
     <use xlink:href="#m5a84e4a42e" x="256.186026" y="170.091651" style="fill: #ddaa33; stroke: #ddaa33; stroke-width: 0.75"/>
     <use xlink:href="#m5a84e4a42e" x="270.856373" y="181.720804" style="fill: #ddaa33; stroke: #ddaa33; stroke-width: 0.75"/>
     <use xlink:href="#m5a84e4a42e" x="417.559851" y="182.882361" style="fill: #ddaa33; stroke: #ddaa33; stroke-width: 0.75"/>
    </g>
   </g>
   <g id="patch_6">
    <path d="M 246.576948 189.615319 
L 246.576948 41.76 
" style="fill: none"/>
   </g>
   <g id="patch_7">
    <path d="M 246.576948 189.615319 
L 425.701894 189.615319 
" style="fill: none"/>
   </g>
   <g id="text_20">
    <!-- Newport East (Medium Diversity) -->
    <g style="fill: #262626" transform="translate(248.457858 35.76) scale(0.12 -0.12)">
     <defs>
      <path id="ArialMT-4e" d="M 488 0 
L 488 4581 
L 1109 4581 
L 3516 984 
L 3516 4581 
L 4097 4581 
L 4097 0 
L 3475 0 
L 1069 3600 
L 1069 0 
L 488 0 
z
" transform="scale(0.015625)"/>
      <path id="ArialMT-64" d="M 2575 0 
L 2575 419 
Q 2259 -75 1647 -75 
Q 1250 -75 917 144 
Q 584 363 401 755 
Q 219 1147 219 1656 
Q 219 2153 384 2558 
Q 550 2963 881 3178 
Q 1213 3394 1622 3394 
Q 1922 3394 2156 3267 
Q 2391 3141 2538 2938 
L 2538 4581 
L 3097 4581 
L 3097 0 
L 2575 0 
z
M 797 1656 
Q 797 1019 1065 703 
Q 1334 388 1700 388 
Q 2069 388 2326 689 
Q 2584 991 2584 1609 
Q 2584 2291 2321 2609 
Q 2059 2928 1675 2928 
Q 1300 2928 1048 2622 
Q 797 2316 797 1656 
z
" transform="scale(0.015625)"/>
      <path id="ArialMT-75" d="M 2597 0 
L 2597 488 
Q 2209 -75 1544 -75 
Q 1250 -75 995 37 
Q 741 150 617 320 
Q 494 491 444 738 
Q 409 903 409 1263 
L 409 3319 
L 972 3319 
L 972 1478 
Q 972 1038 1006 884 
Q 1059 663 1231 536 
Q 1403 409 1656 409 
Q 1909 409 2131 539 
Q 2353 669 2445 892 
Q 2538 1116 2538 1541 
L 2538 3319 
L 3100 3319 
L 3100 0 
L 2597 0 
z
" transform="scale(0.015625)"/>
      <path id="ArialMT-6d" d="M 422 0 
L 422 3319 
L 925 3319 
L 925 2853 
Q 1081 3097 1340 3245 
Q 1600 3394 1931 3394 
Q 2300 3394 2536 3241 
Q 2772 3088 2869 2813 
Q 3263 3394 3894 3394 
Q 4388 3394 4653 3120 
Q 4919 2847 4919 2278 
L 4919 0 
L 4359 0 
L 4359 2091 
Q 4359 2428 4304 2576 
Q 4250 2725 4106 2815 
Q 3963 2906 3769 2906 
Q 3419 2906 3187 2673 
Q 2956 2441 2956 1928 
L 2956 0 
L 2394 0 
L 2394 2156 
Q 2394 2531 2256 2718 
Q 2119 2906 1806 2906 
Q 1569 2906 1367 2781 
Q 1166 2656 1075 2415 
Q 984 2175 984 1722 
L 984 0 
L 422 0 
z
" transform="scale(0.015625)"/>
     </defs>
     <use xlink:href="#ArialMT-4e"/>
     <use xlink:href="#ArialMT-65" x="72.216797"/>
     <use xlink:href="#ArialMT-77" x="127.832031"/>
     <use xlink:href="#ArialMT-70" x="200.048828"/>
     <use xlink:href="#ArialMT-6f" x="255.664062"/>
     <use xlink:href="#ArialMT-72" x="311.279297"/>
     <use xlink:href="#ArialMT-74" x="344.580078"/>
     <use xlink:href="#ArialMT-20" x="372.363281"/>
     <use xlink:href="#ArialMT-45" x="400.146484"/>
     <use xlink:href="#ArialMT-61" x="466.845703"/>
     <use xlink:href="#ArialMT-73" x="522.460938"/>
     <use xlink:href="#ArialMT-74" x="572.460938"/>
     <use xlink:href="#ArialMT-20" x="600.244141"/>
     <use xlink:href="#ArialMT-28" x="628.027344"/>
     <use xlink:href="#ArialMT-4d" x="661.328125"/>
     <use xlink:href="#ArialMT-65" x="744.628906"/>
     <use xlink:href="#ArialMT-64" x="800.244141"/>
     <use xlink:href="#ArialMT-69" x="855.859375"/>
     <use xlink:href="#ArialMT-75" x="878.076172"/>
     <use xlink:href="#ArialMT-6d" x="933.691406"/>
     <use xlink:href="#ArialMT-20" x="1016.992188"/>
     <use xlink:href="#ArialMT-44" x="1044.775391"/>
     <use xlink:href="#ArialMT-69" x="1116.992188"/>
     <use xlink:href="#ArialMT-76" x="1139.208984"/>
     <use xlink:href="#ArialMT-65" x="1189.208984"/>
     <use xlink:href="#ArialMT-72" x="1244.824219"/>
     <use xlink:href="#ArialMT-73" x="1278.125"/>
     <use xlink:href="#ArialMT-69" x="1328.125"/>
     <use xlink:href="#ArialMT-74" x="1350.341797"/>
     <use xlink:href="#ArialMT-79" x="1378.125"/>
     <use xlink:href="#ArialMT-29" x="1428.125"/>
    </g>
   </g>
  </g>
  <g id="axes_3">
   <g id="patch_8">
    <path d="M 444.840458 189.615319 
L 623.965404 189.615319 
L 623.965404 41.76 
L 444.840458 41.76 
z
" style="fill: #eaeaf2"/>
   </g>
   <g id="matplotlib.axis_5">
    <g id="xtick_11">
     <g id="text_21">
      <!-- 0.00 -->
      <g style="fill: #262626" transform="translate(442.115982 200.988913) scale(0.11 -0.11)">
       <use xlink:href="#ArialMT-30"/>
       <use xlink:href="#ArialMT-2e" x="55.615234"/>
       <use xlink:href="#ArialMT-30" x="83.398438"/>
       <use xlink:href="#ArialMT-30" x="139.013672"/>
      </g>
     </g>
    </g>
    <g id="xtick_12">
     <g id="text_22">
      <!-- 0.25 -->
      <g style="fill: #262626" transform="translate(482.866948 200.988913) scale(0.11 -0.11)">
       <use xlink:href="#ArialMT-30"/>
       <use xlink:href="#ArialMT-2e" x="55.615234"/>
       <use xlink:href="#ArialMT-32" x="83.398438"/>
       <use xlink:href="#ArialMT-35" x="139.013672"/>
      </g>
     </g>
    </g>
    <g id="xtick_13">
     <g id="text_23">
      <!-- 0.50 -->
      <g style="fill: #262626" transform="translate(523.617914 200.988913) scale(0.11 -0.11)">
       <use xlink:href="#ArialMT-30"/>
       <use xlink:href="#ArialMT-2e" x="55.615234"/>
       <use xlink:href="#ArialMT-35" x="83.398438"/>
       <use xlink:href="#ArialMT-30" x="139.013672"/>
      </g>
     </g>
    </g>
    <g id="xtick_14">
     <g id="text_24">
      <!-- 0.75 -->
      <g style="fill: #262626" transform="translate(564.36888 200.988913) scale(0.11 -0.11)">
       <use xlink:href="#ArialMT-30"/>
       <use xlink:href="#ArialMT-2e" x="55.615234"/>
       <use xlink:href="#ArialMT-37" x="83.398438"/>
       <use xlink:href="#ArialMT-35" x="139.013672"/>
      </g>
     </g>
    </g>
    <g id="xtick_15">
     <g id="text_25">
      <!-- 1.00 -->
      <g style="fill: #262626" transform="translate(605.119846 200.988913) scale(0.11 -0.11)">
       <use xlink:href="#ArialMT-31"/>
       <use xlink:href="#ArialMT-2e" x="55.615234"/>
       <use xlink:href="#ArialMT-30" x="83.398438"/>
       <use xlink:href="#ArialMT-30" x="139.013672"/>
      </g>
     </g>
    </g>
    <g id="text_26">
     <!-- Epsilon -->
     <g style="fill: #262626" transform="translate(518.004494 214.332975) scale(0.1 -0.1)">
      <use xlink:href="#ArialMT-45"/>
      <use xlink:href="#ArialMT-70" x="66.699219"/>
      <use xlink:href="#ArialMT-73" x="122.314453"/>
      <use xlink:href="#ArialMT-69" x="172.314453"/>
      <use xlink:href="#ArialMT-6c" x="194.53125"/>
      <use xlink:href="#ArialMT-6f" x="216.748047"/>
      <use xlink:href="#ArialMT-6e" x="272.363281"/>
     </g>
    </g>
   </g>
   <g id="matplotlib.axis_6">
    <g id="ytick_11"/>
    <g id="ytick_12"/>
    <g id="ytick_13"/>
    <g id="ytick_14"/>
    <g id="ytick_15"/>
   </g>
   <g id="PolyCollection_3">
    <defs>
     <path id="m8351c52cee" d="M 452.982501 -368.586168 
L 452.982501 -362.941911 
L 454.449536 -252.763428 
L 469.119884 -241.442696 
L 615.823361 -240.261899 
L 615.823361 -240.267277 
L 615.823361 -240.267277 
L 469.119884 -241.499128 
L 454.449536 -253.351241 
L 452.982501 -368.586168 
z
" style="stroke: #bb5566; stroke-opacity: 0.2"/>
    </defs>
    <g clip-path="url(#pbcd1a74b6a)">
     <use xlink:href="#m8351c52cee" x="0" y="423.125156" style="fill: #bb5566; fill-opacity: 0.2; stroke: #bb5566; stroke-opacity: 0.2"/>
    </g>
   </g>
   <g id="line2d_8">
    <path d="M 452.982501 57.28153 
L 454.449536 170.08129 
L 469.119884 181.653595 
L 615.823361 182.860627 
" clip-path="url(#pbcd1a74b6a)" style="fill: none; stroke: #bb5566; stroke-width: 1.5; stroke-linecap: round"/>
    <defs>
     <path id="m198348f7ea" d="M 0 2.5 
C 0.663008 2.5 1.29895 2.236584 1.767767 1.767767 
C 2.236584 1.29895 2.5 0.663008 2.5 0 
C 2.5 -0.663008 2.236584 -1.29895 1.767767 -1.767767 
C 1.29895 -2.236584 0.663008 -2.5 0 -2.5 
C -0.663008 -2.5 -1.29895 -2.236584 -1.767767 -1.767767 
C -2.236584 -1.29895 -2.5 -0.663008 -2.5 0 
C -2.5 0.663008 -2.236584 1.29895 -1.767767 1.767767 
C -1.29895 2.236584 -0.663008 2.5 0 2.5 
z
" style="stroke: #bb5566; stroke-width: 0.75"/>
    </defs>
    <g clip-path="url(#pbcd1a74b6a)">
     <use xlink:href="#m198348f7ea" x="452.982501" y="57.28153" style="fill: #bb5566; stroke: #bb5566; stroke-width: 0.75"/>
     <use xlink:href="#m198348f7ea" x="454.449536" y="170.08129" style="fill: #bb5566; stroke: #bb5566; stroke-width: 0.75"/>
     <use xlink:href="#m198348f7ea" x="469.119884" y="181.653595" style="fill: #bb5566; stroke: #bb5566; stroke-width: 0.75"/>
     <use xlink:href="#m198348f7ea" x="615.823361" y="182.860627" style="fill: #bb5566; stroke: #bb5566; stroke-width: 0.75"/>
    </g>
   </g>
   <g id="patch_9">
    <path d="M 444.840458 189.615319 
L 444.840458 41.76 
" style="fill: none"/>
   </g>
   <g id="patch_10">
    <path d="M 444.840458 189.615319 
L 623.965404 189.615319 
" style="fill: none"/>
   </g>
   <g id="text_27">
    <!-- Nash Mills (High Diversity) -->
    <g style="fill: #262626" transform="translate(464.063244 35.76) scale(0.12 -0.12)">
     <defs>
      <path id="ArialMT-68" d="M 422 0 
L 422 4581 
L 984 4581 
L 984 2938 
Q 1378 3394 1978 3394 
Q 2347 3394 2619 3248 
Q 2891 3103 3008 2847 
Q 3125 2591 3125 2103 
L 3125 0 
L 2563 0 
L 2563 2103 
Q 2563 2525 2380 2717 
Q 2197 2909 1863 2909 
Q 1613 2909 1392 2779 
Q 1172 2650 1078 2428 
Q 984 2206 984 1816 
L 984 0 
L 422 0 
z
" transform="scale(0.015625)"/>
      <path id="ArialMT-48" d="M 513 0 
L 513 4581 
L 1119 4581 
L 1119 2700 
L 3500 2700 
L 3500 4581 
L 4106 4581 
L 4106 0 
L 3500 0 
L 3500 2159 
L 1119 2159 
L 1119 0 
L 513 0 
z
" transform="scale(0.015625)"/>
     </defs>
     <use xlink:href="#ArialMT-4e"/>
     <use xlink:href="#ArialMT-61" x="72.216797"/>
     <use xlink:href="#ArialMT-73" x="127.832031"/>
     <use xlink:href="#ArialMT-68" x="177.832031"/>
     <use xlink:href="#ArialMT-20" x="233.447266"/>
     <use xlink:href="#ArialMT-4d" x="261.230469"/>
     <use xlink:href="#ArialMT-69" x="344.53125"/>
     <use xlink:href="#ArialMT-6c" x="366.748047"/>
     <use xlink:href="#ArialMT-6c" x="388.964844"/>
     <use xlink:href="#ArialMT-73" x="411.181641"/>
     <use xlink:href="#ArialMT-20" x="461.181641"/>
     <use xlink:href="#ArialMT-28" x="488.964844"/>
     <use xlink:href="#ArialMT-48" x="522.265625"/>
     <use xlink:href="#ArialMT-69" x="594.482422"/>
     <use xlink:href="#ArialMT-67" x="616.699219"/>
     <use xlink:href="#ArialMT-68" x="672.314453"/>
     <use xlink:href="#ArialMT-20" x="727.929688"/>
     <use xlink:href="#ArialMT-44" x="755.712891"/>
     <use xlink:href="#ArialMT-69" x="827.929688"/>
     <use xlink:href="#ArialMT-76" x="850.146484"/>
     <use xlink:href="#ArialMT-65" x="900.146484"/>
     <use xlink:href="#ArialMT-72" x="955.761719"/>
     <use xlink:href="#ArialMT-73" x="989.0625"/>
     <use xlink:href="#ArialMT-69" x="1039.0625"/>
     <use xlink:href="#ArialMT-74" x="1061.279297"/>
     <use xlink:href="#ArialMT-79" x="1089.0625"/>
     <use xlink:href="#ArialMT-29" x="1139.0625"/>
    </g>
   </g>
  </g>
  <g id="axes_4">
   <g id="patch_11">
    <path d="M 48.313438 389.22 
L 227.438383 389.22 
L 227.438383 241.364681 
L 48.313438 241.364681 
z
" style="fill: #eaeaf2"/>
   </g>
   <g id="matplotlib.axis_7">
    <g id="xtick_16">
     <g id="text_28">
      <!-- 0.00 -->
      <g style="fill: #262626" transform="translate(45.588961 400.593594) scale(0.11 -0.11)">
       <use xlink:href="#ArialMT-30"/>
       <use xlink:href="#ArialMT-2e" x="55.615234"/>
       <use xlink:href="#ArialMT-30" x="83.398438"/>
       <use xlink:href="#ArialMT-30" x="139.013672"/>
      </g>
     </g>
    </g>
    <g id="xtick_17">
     <g id="text_29">
      <!-- 0.25 -->
      <g style="fill: #262626" transform="translate(86.339927 400.593594) scale(0.11 -0.11)">
       <use xlink:href="#ArialMT-30"/>
       <use xlink:href="#ArialMT-2e" x="55.615234"/>
       <use xlink:href="#ArialMT-32" x="83.398438"/>
       <use xlink:href="#ArialMT-35" x="139.013672"/>
      </g>
     </g>
    </g>
    <g id="xtick_18">
     <g id="text_30">
      <!-- 0.50 -->
      <g style="fill: #262626" transform="translate(127.090893 400.593594) scale(0.11 -0.11)">
       <use xlink:href="#ArialMT-30"/>
       <use xlink:href="#ArialMT-2e" x="55.615234"/>
       <use xlink:href="#ArialMT-35" x="83.398438"/>
       <use xlink:href="#ArialMT-30" x="139.013672"/>
      </g>
     </g>
    </g>
    <g id="xtick_19">
     <g id="text_31">
      <!-- 0.75 -->
      <g style="fill: #262626" transform="translate(167.841859 400.593594) scale(0.11 -0.11)">
       <use xlink:href="#ArialMT-30"/>
       <use xlink:href="#ArialMT-2e" x="55.615234"/>
       <use xlink:href="#ArialMT-37" x="83.398438"/>
       <use xlink:href="#ArialMT-35" x="139.013672"/>
      </g>
     </g>
    </g>
    <g id="xtick_20">
     <g id="text_32">
      <!-- 1.00 -->
      <g style="fill: #262626" transform="translate(208.592825 400.593594) scale(0.11 -0.11)">
       <use xlink:href="#ArialMT-31"/>
       <use xlink:href="#ArialMT-2e" x="55.615234"/>
       <use xlink:href="#ArialMT-30" x="83.398438"/>
       <use xlink:href="#ArialMT-30" x="139.013672"/>
      </g>
     </g>
    </g>
    <g id="text_33">
     <!-- Epsilon -->
     <g style="fill: #262626" transform="translate(121.477473 413.937656) scale(0.1 -0.1)">
      <use xlink:href="#ArialMT-45"/>
      <use xlink:href="#ArialMT-70" x="66.699219"/>
      <use xlink:href="#ArialMT-73" x="122.314453"/>
      <use xlink:href="#ArialMT-69" x="172.314453"/>
      <use xlink:href="#ArialMT-6c" x="194.53125"/>
      <use xlink:href="#ArialMT-6f" x="216.748047"/>
      <use xlink:href="#ArialMT-6e" x="272.363281"/>
     </g>
    </g>
   </g>
   <g id="matplotlib.axis_8">
    <g id="ytick_16">
     <g id="text_34">
      <!-- 0 -->
      <g style="fill: #262626" transform="translate(38.696406 386.566814) scale(0.11 -0.11)">
       <use xlink:href="#ArialMT-30"/>
      </g>
     </g>
    </g>
    <g id="ytick_17">
     <g id="text_35">
      <!-- 500 -->
      <g style="fill: #262626" transform="translate(26.462344 352.912042) scale(0.11 -0.11)">
       <use xlink:href="#ArialMT-35"/>
       <use xlink:href="#ArialMT-30" x="55.615234"/>
       <use xlink:href="#ArialMT-30" x="111.230469"/>
      </g>
     </g>
    </g>
    <g id="ytick_18">
     <g id="text_36">
      <!-- 1000 -->
      <g style="fill: #262626" transform="translate(20.345313 319.257269) scale(0.11 -0.11)">
       <use xlink:href="#ArialMT-31"/>
       <use xlink:href="#ArialMT-30" x="55.615234"/>
       <use xlink:href="#ArialMT-30" x="111.230469"/>
       <use xlink:href="#ArialMT-30" x="166.845703"/>
      </g>
     </g>
    </g>
    <g id="ytick_19">
     <g id="text_37">
      <!-- 1500 -->
      <g style="fill: #262626" transform="translate(20.345313 285.602496) scale(0.11 -0.11)">
       <use xlink:href="#ArialMT-31"/>
       <use xlink:href="#ArialMT-35" x="55.615234"/>
       <use xlink:href="#ArialMT-30" x="111.230469"/>
       <use xlink:href="#ArialMT-30" x="166.845703"/>
      </g>
     </g>
    </g>
    <g id="ytick_20">
     <g id="text_38">
      <!-- 2000 -->
      <g style="fill: #262626" transform="translate(20.345313 251.947723) scale(0.11 -0.11)">
       <use xlink:href="#ArialMT-32"/>
       <use xlink:href="#ArialMT-30" x="55.615234"/>
       <use xlink:href="#ArialMT-30" x="111.230469"/>
       <use xlink:href="#ArialMT-30" x="166.845703"/>
      </g>
     </g>
    </g>
    <g id="text_39">
     <!-- RMSE -->
     <g style="fill: #262626" transform="translate(14.357813 329.738434) rotate(-90) scale(0.1 -0.1)">
      <use xlink:href="#ArialMT-52"/>
      <use xlink:href="#ArialMT-4d" x="72.216797"/>
      <use xlink:href="#ArialMT-53" x="155.517578"/>
      <use xlink:href="#ArialMT-45" x="222.216797"/>
     </g>
    </g>
   </g>
   <g id="PolyCollection_4">
    <defs>
     <path id="m8050ef23da" d="M 56.45548 -168.687814 
L 56.45548 -163.041618 
L 57.922515 -53.023834 
L 72.592863 -41.762649 
L 219.29634 -40.625853 
L 219.29634 -40.631502 
L 219.29634 -40.631502 
L 72.592863 -41.820248 
L 57.922515 -53.600193 
L 56.45548 -168.687814 
z
" style="stroke: #1b7837; stroke-opacity: 0.2"/>
    </defs>
    <g clip-path="url(#pe3f0d13671)">
     <use xlink:href="#m8050ef23da" x="0" y="423.125156" style="fill: #1b7837; fill-opacity: 0.2; stroke: #1b7837; stroke-opacity: 0.2"/>
    </g>
   </g>
   <g id="line2d_9">
    <path d="M 56.45548 257.211954 
L 57.922515 369.808936 
L 72.592863 381.334719 
L 219.29634 382.496526 
" clip-path="url(#pe3f0d13671)" style="fill: none; stroke: #1b7837; stroke-width: 1.5; stroke-linecap: round"/>
    <defs>
     <path id="m96ff3e644a" d="M 0 2.5 
C 0.663008 2.5 1.29895 2.236584 1.767767 1.767767 
C 2.236584 1.29895 2.5 0.663008 2.5 0 
C 2.5 -0.663008 2.236584 -1.29895 1.767767 -1.767767 
C 1.29895 -2.236584 0.663008 -2.5 0 -2.5 
C -0.663008 -2.5 -1.29895 -2.236584 -1.767767 -1.767767 
C -2.236584 -1.29895 -2.5 -0.663008 -2.5 0 
C -2.5 0.663008 -2.236584 1.29895 -1.767767 1.767767 
C -1.29895 2.236584 -0.663008 2.5 0 2.5 
z
" style="stroke: #1b7837; stroke-width: 0.75"/>
    </defs>
    <g clip-path="url(#pe3f0d13671)">
     <use xlink:href="#m96ff3e644a" x="56.45548" y="257.211954" style="fill: #1b7837; stroke: #1b7837; stroke-width: 0.75"/>
     <use xlink:href="#m96ff3e644a" x="57.922515" y="369.808936" style="fill: #1b7837; stroke: #1b7837; stroke-width: 0.75"/>
     <use xlink:href="#m96ff3e644a" x="72.592863" y="381.334719" style="fill: #1b7837; stroke: #1b7837; stroke-width: 0.75"/>
     <use xlink:href="#m96ff3e644a" x="219.29634" y="382.496526" style="fill: #1b7837; stroke: #1b7837; stroke-width: 0.75"/>
    </g>
   </g>
   <g id="patch_12">
    <path d="M 48.313438 389.22 
L 48.313438 241.364681 
" style="fill: none"/>
   </g>
   <g id="patch_13">
    <path d="M 48.313438 389.22 
L 227.438383 389.22 
" style="fill: none"/>
   </g>
   <g id="text_40">
    <!-- Ennerdale (Small Ward) -->
    <g style="fill: #262626" transform="translate(74.081848 235.364681) scale(0.12 -0.12)">
     <defs>
      <path id="ArialMT-57" d="M 1294 0 
L 78 4581 
L 700 4581 
L 1397 1578 
Q 1509 1106 1591 641 
Q 1766 1375 1797 1488 
L 2669 4581 
L 3400 4581 
L 4056 2263 
Q 4303 1400 4413 641 
Q 4500 1075 4641 1638 
L 5359 4581 
L 5969 4581 
L 4713 0 
L 4128 0 
L 3163 3491 
Q 3041 3928 3019 4028 
Q 2947 3713 2884 3491 
L 1913 0 
L 1294 0 
z
" transform="scale(0.015625)"/>
     </defs>
     <use xlink:href="#ArialMT-45"/>
     <use xlink:href="#ArialMT-6e" x="66.699219"/>
     <use xlink:href="#ArialMT-6e" x="122.314453"/>
     <use xlink:href="#ArialMT-65" x="177.929688"/>
     <use xlink:href="#ArialMT-72" x="233.544922"/>
     <use xlink:href="#ArialMT-64" x="266.845703"/>
     <use xlink:href="#ArialMT-61" x="322.460938"/>
     <use xlink:href="#ArialMT-6c" x="378.076172"/>
     <use xlink:href="#ArialMT-65" x="400.292969"/>
     <use xlink:href="#ArialMT-20" x="455.908203"/>
     <use xlink:href="#ArialMT-28" x="483.691406"/>
     <use xlink:href="#ArialMT-53" x="516.992188"/>
     <use xlink:href="#ArialMT-6d" x="583.691406"/>
     <use xlink:href="#ArialMT-61" x="666.992188"/>
     <use xlink:href="#ArialMT-6c" x="722.607422"/>
     <use xlink:href="#ArialMT-6c" x="744.824219"/>
     <use xlink:href="#ArialMT-20" x="767.041016"/>
     <use xlink:href="#ArialMT-57" x="794.824219"/>
     <use xlink:href="#ArialMT-61" x="885.458984"/>
     <use xlink:href="#ArialMT-72" x="941.074219"/>
     <use xlink:href="#ArialMT-64" x="974.375"/>
     <use xlink:href="#ArialMT-29" x="1029.990234"/>
    </g>
   </g>
  </g>
  <g id="axes_5">
   <g id="patch_14">
    <path d="M 246.576948 389.22 
L 425.701894 389.22 
L 425.701894 241.364681 
L 246.576948 241.364681 
z
" style="fill: #eaeaf2"/>
   </g>
   <g id="matplotlib.axis_9">
    <g id="xtick_21">
     <g id="text_41">
      <!-- 0.00 -->
      <g style="fill: #262626" transform="translate(243.852471 400.593594) scale(0.11 -0.11)">
       <use xlink:href="#ArialMT-30"/>
       <use xlink:href="#ArialMT-2e" x="55.615234"/>
       <use xlink:href="#ArialMT-30" x="83.398438"/>
       <use xlink:href="#ArialMT-30" x="139.013672"/>
      </g>
     </g>
    </g>
    <g id="xtick_22">
     <g id="text_42">
      <!-- 0.25 -->
      <g style="fill: #262626" transform="translate(284.603437 400.593594) scale(0.11 -0.11)">
       <use xlink:href="#ArialMT-30"/>
       <use xlink:href="#ArialMT-2e" x="55.615234"/>
       <use xlink:href="#ArialMT-32" x="83.398438"/>
       <use xlink:href="#ArialMT-35" x="139.013672"/>
      </g>
     </g>
    </g>
    <g id="xtick_23">
     <g id="text_43">
      <!-- 0.50 -->
      <g style="fill: #262626" transform="translate(325.354403 400.593594) scale(0.11 -0.11)">
       <use xlink:href="#ArialMT-30"/>
       <use xlink:href="#ArialMT-2e" x="55.615234"/>
       <use xlink:href="#ArialMT-35" x="83.398438"/>
       <use xlink:href="#ArialMT-30" x="139.013672"/>
      </g>
     </g>
    </g>
    <g id="xtick_24">
     <g id="text_44">
      <!-- 0.75 -->
      <g style="fill: #262626" transform="translate(366.105369 400.593594) scale(0.11 -0.11)">
       <use xlink:href="#ArialMT-30"/>
       <use xlink:href="#ArialMT-2e" x="55.615234"/>
       <use xlink:href="#ArialMT-37" x="83.398438"/>
       <use xlink:href="#ArialMT-35" x="139.013672"/>
      </g>
     </g>
    </g>
    <g id="xtick_25">
     <g id="text_45">
      <!-- 1.00 -->
      <g style="fill: #262626" transform="translate(406.856335 400.593594) scale(0.11 -0.11)">
       <use xlink:href="#ArialMT-31"/>
       <use xlink:href="#ArialMT-2e" x="55.615234"/>
       <use xlink:href="#ArialMT-30" x="83.398438"/>
       <use xlink:href="#ArialMT-30" x="139.013672"/>
      </g>
     </g>
    </g>
    <g id="text_46">
     <!-- Epsilon -->
     <g style="fill: #262626" transform="translate(319.740983 413.937656) scale(0.1 -0.1)">
      <use xlink:href="#ArialMT-45"/>
      <use xlink:href="#ArialMT-70" x="66.699219"/>
      <use xlink:href="#ArialMT-73" x="122.314453"/>
      <use xlink:href="#ArialMT-69" x="172.314453"/>
      <use xlink:href="#ArialMT-6c" x="194.53125"/>
      <use xlink:href="#ArialMT-6f" x="216.748047"/>
      <use xlink:href="#ArialMT-6e" x="272.363281"/>
     </g>
    </g>
   </g>
   <g id="matplotlib.axis_10">
    <g id="ytick_21"/>
    <g id="ytick_22"/>
    <g id="ytick_23"/>
    <g id="ytick_24"/>
    <g id="ytick_25"/>
   </g>
   <g id="PolyCollection_5">
    <defs>
     <path id="m18f3ae8554" d="M 254.718991 -175.039779 
L 254.718991 -169.856772 
L 256.186026 -56.482519 
L 270.856373 -42.276926 
L 417.559851 -40.673756 
L 417.559851 -40.679361 
L 417.559851 -40.679361 
L 270.856373 -42.331766 
L 256.186026 -57.000567 
L 254.718991 -175.039779 
z
" style="stroke: #ee7733; stroke-opacity: 0.2"/>
    </defs>
    <g clip-path="url(#p74d42ebd47)">
     <use xlink:href="#m18f3ae8554" x="0" y="423.125156" style="fill: #ee7733; fill-opacity: 0.2; stroke: #ee7733; stroke-opacity: 0.2"/>
    </g>
   </g>
   <g id="line2d_10">
    <path d="M 254.718991 250.630061 
L 256.186026 366.381051 
L 270.856373 380.819997 
L 417.559851 382.448556 
" clip-path="url(#p74d42ebd47)" style="fill: none; stroke: #ee7733; stroke-width: 1.5; stroke-linecap: round"/>
    <defs>
     <path id="m9fdefedec1" d="M 0 2.5 
C 0.663008 2.5 1.29895 2.236584 1.767767 1.767767 
C 2.236584 1.29895 2.5 0.663008 2.5 0 
C 2.5 -0.663008 2.236584 -1.29895 1.767767 -1.767767 
C 1.29895 -2.236584 0.663008 -2.5 0 -2.5 
C -0.663008 -2.5 -1.29895 -2.236584 -1.767767 -1.767767 
C -2.236584 -1.29895 -2.5 -0.663008 -2.5 0 
C -2.5 0.663008 -2.236584 1.29895 -1.767767 1.767767 
C -1.29895 2.236584 -0.663008 2.5 0 2.5 
z
" style="stroke: #ee7733; stroke-width: 0.75"/>
    </defs>
    <g clip-path="url(#p74d42ebd47)">
     <use xlink:href="#m9fdefedec1" x="254.718991" y="250.630061" style="fill: #ee7733; stroke: #ee7733; stroke-width: 0.75"/>
     <use xlink:href="#m9fdefedec1" x="256.186026" y="366.381051" style="fill: #ee7733; stroke: #ee7733; stroke-width: 0.75"/>
     <use xlink:href="#m9fdefedec1" x="270.856373" y="380.819997" style="fill: #ee7733; stroke: #ee7733; stroke-width: 0.75"/>
     <use xlink:href="#m9fdefedec1" x="417.559851" y="382.448556" style="fill: #ee7733; stroke: #ee7733; stroke-width: 0.75"/>
    </g>
   </g>
   <g id="patch_15">
    <path d="M 246.576948 389.22 
L 246.576948 241.364681 
" style="fill: none"/>
   </g>
   <g id="patch_16">
    <path d="M 246.576948 389.22 
L 425.701894 389.22 
" style="fill: none"/>
   </g>
   <g id="text_47">
    <!-- Ladywood (Large Ward) -->
    <g style="fill: #262626" transform="translate(272.004108 235.364681) scale(0.12 -0.12)">
     <use xlink:href="#ArialMT-4c"/>
     <use xlink:href="#ArialMT-61" x="55.615234"/>
     <use xlink:href="#ArialMT-64" x="111.230469"/>
     <use xlink:href="#ArialMT-79" x="166.845703"/>
     <use xlink:href="#ArialMT-77" x="216.845703"/>
     <use xlink:href="#ArialMT-6f" x="289.0625"/>
     <use xlink:href="#ArialMT-6f" x="344.677734"/>
     <use xlink:href="#ArialMT-64" x="400.292969"/>
     <use xlink:href="#ArialMT-20" x="455.908203"/>
     <use xlink:href="#ArialMT-28" x="483.691406"/>
     <use xlink:href="#ArialMT-4c" x="516.992188"/>
     <use xlink:href="#ArialMT-61" x="572.607422"/>
     <use xlink:href="#ArialMT-72" x="628.222656"/>
     <use xlink:href="#ArialMT-67" x="661.523438"/>
     <use xlink:href="#ArialMT-65" x="717.138672"/>
     <use xlink:href="#ArialMT-20" x="772.753906"/>
     <use xlink:href="#ArialMT-57" x="800.537109"/>
     <use xlink:href="#ArialMT-61" x="891.171875"/>
     <use xlink:href="#ArialMT-72" x="946.787109"/>
     <use xlink:href="#ArialMT-64" x="980.087891"/>
     <use xlink:href="#ArialMT-29" x="1035.703125"/>
    </g>
   </g>
  </g>
  <g id="text_48">
   <!-- RMSE - Geometric Mechanism -->
   <g style="fill: #262626" transform="translate(263.77911 17.220937) scale(0.14 -0.14)">
    <defs>
     <path id="ArialMT-2d" d="M 203 1375 
L 203 1941 
L 1931 1941 
L 1931 1375 
L 203 1375 
z
" transform="scale(0.015625)"/>
     <path id="ArialMT-47" d="M 2638 1797 
L 2638 2334 
L 4578 2338 
L 4578 638 
Q 4131 281 3656 101 
Q 3181 -78 2681 -78 
Q 2006 -78 1454 211 
Q 903 500 622 1047 
Q 341 1594 341 2269 
Q 341 2938 620 3517 
Q 900 4097 1425 4378 
Q 1950 4659 2634 4659 
Q 3131 4659 3532 4498 
Q 3934 4338 4162 4050 
Q 4391 3763 4509 3300 
L 3963 3150 
Q 3859 3500 3706 3700 
Q 3553 3900 3268 4020 
Q 2984 4141 2638 4141 
Q 2222 4141 1919 4014 
Q 1616 3888 1430 3681 
Q 1244 3475 1141 3228 
Q 966 2803 966 2306 
Q 966 1694 1177 1281 
Q 1388 869 1791 669 
Q 2194 469 2647 469 
Q 3041 469 3416 620 
Q 3791 772 3984 944 
L 3984 1797 
L 2638 1797 
z
" transform="scale(0.015625)"/>
     <path id="ArialMT-63" d="M 2588 1216 
L 3141 1144 
Q 3050 572 2676 248 
Q 2303 -75 1759 -75 
Q 1078 -75 664 370 
Q 250 816 250 1647 
Q 250 2184 428 2587 
Q 606 2991 970 3192 
Q 1334 3394 1763 3394 
Q 2303 3394 2647 3120 
Q 2991 2847 3088 2344 
L 2541 2259 
Q 2463 2594 2264 2762 
Q 2066 2931 1784 2931 
Q 1359 2931 1093 2626 
Q 828 2322 828 1663 
Q 828 994 1084 691 
Q 1341 388 1753 388 
Q 2084 388 2306 591 
Q 2528 794 2588 1216 
z
" transform="scale(0.015625)"/>
    </defs>
    <use xlink:href="#ArialMT-52"/>
    <use xlink:href="#ArialMT-4d" x="72.216797"/>
    <use xlink:href="#ArialMT-53" x="155.517578"/>
    <use xlink:href="#ArialMT-45" x="222.216797"/>
    <use xlink:href="#ArialMT-20" x="288.916016"/>
    <use xlink:href="#ArialMT-2d" x="316.699219"/>
    <use xlink:href="#ArialMT-20" x="350"/>
    <use xlink:href="#ArialMT-47" x="377.783203"/>
    <use xlink:href="#ArialMT-65" x="455.566406"/>
    <use xlink:href="#ArialMT-6f" x="511.181641"/>
    <use xlink:href="#ArialMT-6d" x="566.796875"/>
    <use xlink:href="#ArialMT-65" x="650.097656"/>
    <use xlink:href="#ArialMT-74" x="705.712891"/>
    <use xlink:href="#ArialMT-72" x="733.496094"/>
    <use xlink:href="#ArialMT-69" x="766.796875"/>
    <use xlink:href="#ArialMT-63" x="789.013672"/>
    <use xlink:href="#ArialMT-20" x="839.013672"/>
    <use xlink:href="#ArialMT-4d" x="866.796875"/>
    <use xlink:href="#ArialMT-65" x="950.097656"/>
    <use xlink:href="#ArialMT-63" x="1005.712891"/>
    <use xlink:href="#ArialMT-68" x="1055.712891"/>
    <use xlink:href="#ArialMT-61" x="1111.328125"/>
    <use xlink:href="#ArialMT-6e" x="1166.943359"/>
    <use xlink:href="#ArialMT-69" x="1222.558594"/>
    <use xlink:href="#ArialMT-73" x="1244.775391"/>
    <use xlink:href="#ArialMT-6d" x="1294.775391"/>
   </g>
  </g>
  <g id="legend_1">
   <g id="line2d_11">
    <path d="M 630.256142 55.683594 
L 641.256142 55.683594 
L 652.256142 55.683594 
" style="fill: none; stroke: #004488; stroke-width: 1.5; stroke-linecap: round"/>
    <defs>
     <path id="m1f9508e072" d="M 0 2.5 
C 0.663008 2.5 1.29895 2.236584 1.767767 1.767767 
C 2.236584 1.29895 2.5 0.663008 2.5 0 
C 2.5 -0.663008 2.236584 -1.29895 1.767767 -1.767767 
C 1.29895 -2.236584 0.663008 -2.5 0 -2.5 
C -0.663008 -2.5 -1.29895 -2.236584 -1.767767 -1.767767 
C -2.236584 -1.29895 -2.5 -0.663008 -2.5 0 
C -2.5 0.663008 -2.236584 1.29895 -1.767767 1.767767 
C -1.29895 2.236584 -0.663008 2.5 0 2.5 
z
" style="stroke: #004488"/>
    </defs>
    <g>
     <use xlink:href="#m1f9508e072" x="641.256142" y="55.683594" style="fill: #004488; stroke: #004488"/>
    </g>
   </g>
   <g id="text_49">
    <!-- Teign Valley -->
    <g style="fill: #262626" transform="translate(661.056142 59.533594) scale(0.11 -0.11)">
     <use xlink:href="#ArialMT-54"/>
     <use xlink:href="#ArialMT-65" x="49.958984"/>
     <use xlink:href="#ArialMT-69" x="105.574219"/>
     <use xlink:href="#ArialMT-67" x="127.791016"/>
     <use xlink:href="#ArialMT-6e" x="183.40625"/>
     <use xlink:href="#ArialMT-20" x="239.021484"/>
     <use xlink:href="#ArialMT-56" x="266.804688"/>
     <use xlink:href="#ArialMT-61" x="326.128906"/>
     <use xlink:href="#ArialMT-6c" x="381.744141"/>
     <use xlink:href="#ArialMT-6c" x="403.960938"/>
     <use xlink:href="#ArialMT-65" x="426.177734"/>
     <use xlink:href="#ArialMT-79" x="481.792969"/>
    </g>
   </g>
   <g id="line2d_12">
    <path d="M 630.256142 71.372344 
L 641.256142 71.372344 
L 652.256142 71.372344 
" style="fill: none; stroke: #ddaa33; stroke-width: 1.5; stroke-linecap: round"/>
    <defs>
     <path id="m95c7958398" d="M 0 2.5 
C 0.663008 2.5 1.29895 2.236584 1.767767 1.767767 
C 2.236584 1.29895 2.5 0.663008 2.5 0 
C 2.5 -0.663008 2.236584 -1.29895 1.767767 -1.767767 
C 1.29895 -2.236584 0.663008 -2.5 0 -2.5 
C -0.663008 -2.5 -1.29895 -2.236584 -1.767767 -1.767767 
C -2.236584 -1.29895 -2.5 -0.663008 -2.5 0 
C -2.5 0.663008 -2.236584 1.29895 -1.767767 1.767767 
C -1.29895 2.236584 -0.663008 2.5 0 2.5 
z
" style="stroke: #ddaa33"/>
    </defs>
    <g>
     <use xlink:href="#m95c7958398" x="641.256142" y="71.372344" style="fill: #ddaa33; stroke: #ddaa33"/>
    </g>
   </g>
   <g id="text_50">
    <!-- Newport East -->
    <g style="fill: #262626" transform="translate(661.056142 75.222344) scale(0.11 -0.11)">
     <use xlink:href="#ArialMT-4e"/>
     <use xlink:href="#ArialMT-65" x="72.216797"/>
     <use xlink:href="#ArialMT-77" x="127.832031"/>
     <use xlink:href="#ArialMT-70" x="200.048828"/>
     <use xlink:href="#ArialMT-6f" x="255.664062"/>
     <use xlink:href="#ArialMT-72" x="311.279297"/>
     <use xlink:href="#ArialMT-74" x="344.580078"/>
     <use xlink:href="#ArialMT-20" x="372.363281"/>
     <use xlink:href="#ArialMT-45" x="400.146484"/>
     <use xlink:href="#ArialMT-61" x="466.845703"/>
     <use xlink:href="#ArialMT-73" x="522.460938"/>
     <use xlink:href="#ArialMT-74" x="572.460938"/>
    </g>
   </g>
   <g id="line2d_13">
    <path d="M 630.256142 86.932187 
L 641.256142 86.932187 
L 652.256142 86.932187 
" style="fill: none; stroke: #bb5566; stroke-width: 1.5; stroke-linecap: round"/>
    <defs>
     <path id="m0ba93d283d" d="M 0 2.5 
C 0.663008 2.5 1.29895 2.236584 1.767767 1.767767 
C 2.236584 1.29895 2.5 0.663008 2.5 0 
C 2.5 -0.663008 2.236584 -1.29895 1.767767 -1.767767 
C 1.29895 -2.236584 0.663008 -2.5 0 -2.5 
C -0.663008 -2.5 -1.29895 -2.236584 -1.767767 -1.767767 
C -2.236584 -1.29895 -2.5 -0.663008 -2.5 0 
C -2.5 0.663008 -2.236584 1.29895 -1.767767 1.767767 
C -1.29895 2.236584 -0.663008 2.5 0 2.5 
z
" style="stroke: #bb5566"/>
    </defs>
    <g>
     <use xlink:href="#m0ba93d283d" x="641.256142" y="86.932187" style="fill: #bb5566; stroke: #bb5566"/>
    </g>
   </g>
   <g id="text_51">
    <!-- Nash Mills -->
    <g style="fill: #262626" transform="translate(661.056142 90.782187) scale(0.11 -0.11)">
     <use xlink:href="#ArialMT-4e"/>
     <use xlink:href="#ArialMT-61" x="72.216797"/>
     <use xlink:href="#ArialMT-73" x="127.832031"/>
     <use xlink:href="#ArialMT-68" x="177.832031"/>
     <use xlink:href="#ArialMT-20" x="233.447266"/>
     <use xlink:href="#ArialMT-4d" x="261.230469"/>
     <use xlink:href="#ArialMT-69" x="344.53125"/>
     <use xlink:href="#ArialMT-6c" x="366.748047"/>
     <use xlink:href="#ArialMT-6c" x="388.964844"/>
     <use xlink:href="#ArialMT-73" x="411.181641"/>
    </g>
   </g>
   <g id="line2d_14">
    <path d="M 630.256142 102.492031 
L 641.256142 102.492031 
L 652.256142 102.492031 
" style="fill: none; stroke: #1b7837; stroke-width: 1.5; stroke-linecap: round"/>
    <defs>
     <path id="m7f77efe0ee" d="M 0 2.5 
C 0.663008 2.5 1.29895 2.236584 1.767767 1.767767 
C 2.236584 1.29895 2.5 0.663008 2.5 0 
C 2.5 -0.663008 2.236584 -1.29895 1.767767 -1.767767 
C 1.29895 -2.236584 0.663008 -2.5 0 -2.5 
C -0.663008 -2.5 -1.29895 -2.236584 -1.767767 -1.767767 
C -2.236584 -1.29895 -2.5 -0.663008 -2.5 0 
C -2.5 0.663008 -2.236584 1.29895 -1.767767 1.767767 
C -1.29895 2.236584 -0.663008 2.5 0 2.5 
z
" style="stroke: #1b7837"/>
    </defs>
    <g>
     <use xlink:href="#m7f77efe0ee" x="641.256142" y="102.492031" style="fill: #1b7837; stroke: #1b7837"/>
    </g>
   </g>
   <g id="text_52">
    <!-- Ennerdale -->
    <g style="fill: #262626" transform="translate(661.056142 106.342031) scale(0.11 -0.11)">
     <use xlink:href="#ArialMT-45"/>
     <use xlink:href="#ArialMT-6e" x="66.699219"/>
     <use xlink:href="#ArialMT-6e" x="122.314453"/>
     <use xlink:href="#ArialMT-65" x="177.929688"/>
     <use xlink:href="#ArialMT-72" x="233.544922"/>
     <use xlink:href="#ArialMT-64" x="266.845703"/>
     <use xlink:href="#ArialMT-61" x="322.460938"/>
     <use xlink:href="#ArialMT-6c" x="378.076172"/>
     <use xlink:href="#ArialMT-65" x="400.292969"/>
    </g>
   </g>
   <g id="line2d_15">
    <path d="M 630.256142 118.051875 
L 641.256142 118.051875 
L 652.256142 118.051875 
" style="fill: none; stroke: #ee7733; stroke-width: 1.5; stroke-linecap: round"/>
    <defs>
     <path id="meeda025c1d" d="M 0 2.5 
C 0.663008 2.5 1.29895 2.236584 1.767767 1.767767 
C 2.236584 1.29895 2.5 0.663008 2.5 0 
C 2.5 -0.663008 2.236584 -1.29895 1.767767 -1.767767 
C 1.29895 -2.236584 0.663008 -2.5 0 -2.5 
C -0.663008 -2.5 -1.29895 -2.236584 -1.767767 -1.767767 
C -2.236584 -1.29895 -2.5 -0.663008 -2.5 0 
C -2.5 0.663008 -2.236584 1.29895 -1.767767 1.767767 
C -1.29895 2.236584 -0.663008 2.5 0 2.5 
z
" style="stroke: #ee7733"/>
    </defs>
    <g>
     <use xlink:href="#meeda025c1d" x="641.256142" y="118.051875" style="fill: #ee7733; stroke: #ee7733"/>
    </g>
   </g>
   <g id="text_53">
    <!-- Ladywood -->
    <g style="fill: #262626" transform="translate(661.056142 121.901875) scale(0.11 -0.11)">
     <use xlink:href="#ArialMT-4c"/>
     <use xlink:href="#ArialMT-61" x="55.615234"/>
     <use xlink:href="#ArialMT-64" x="111.230469"/>
     <use xlink:href="#ArialMT-79" x="166.845703"/>
     <use xlink:href="#ArialMT-77" x="216.845703"/>
     <use xlink:href="#ArialMT-6f" x="289.0625"/>
     <use xlink:href="#ArialMT-6f" x="344.677734"/>
     <use xlink:href="#ArialMT-64" x="400.292969"/>
    </g>
   </g>
  </g>
 </g>
 <defs>
  <clipPath id="p3208cdb251">
   <rect x="48.313438" y="41.76" width="179.124946" height="147.855319"/>
  </clipPath>
  <clipPath id="p4e6c38da5c">
   <rect x="246.576948" y="41.76" width="179.124946" height="147.855319"/>
  </clipPath>
  <clipPath id="pbcd1a74b6a">
   <rect x="444.840458" y="41.76" width="179.124946" height="147.855319"/>
  </clipPath>
  <clipPath id="pe3f0d13671">
   <rect x="48.313438" y="241.364681" width="179.124946" height="147.855319"/>
  </clipPath>
  <clipPath id="p74d42ebd47">
   <rect x="246.576948" y="241.364681" width="179.124946" height="147.855319"/>
  </clipPath>
 </defs>
</svg>
